<?xml version="1.0" encoding="UTF-8"?>
<svg id="_レイヤー_1" data-name="レイヤー_1" xmlns="http://www.w3.org/2000/svg" version="1.1" viewBox="0 0 32 32">
  <!-- Generator: Adobe Illustrator 29.5.1, SVG Export Plug-In . SVG Version: 2.1.0 Build 141)  -->
  <path d="M16,2C8.3,2,2,7.2,2,13.5s5,10.4,11.7,11.3c1.6.4,1.5,1,1.1,3.2,0,.4-.3,1.4,1.2.8,1.5-.6,8.1-4.8,11-8.2,2-2.3,3-4.5,3-7.1,0-6.3-6.3-11.5-14-11.5ZM11,16.9c0,.2-.1.3-.3.3h-3.9c0,0-.1,0-.2,0,0,0,0-.1,0-.2v-6.2c0-.2.1-.3.3-.3h1c.2,0,.3.1.3.3v4.9h2.7c.1,0,.3.1.3.3v1h0ZM13.4,16.9c0,.2-.1.3-.3.3h-1c-.2,0-.3-.1-.3-.3v-6.2c0-.2.1-.3.3-.3h1c.2,0,.3.1.3.3v6.2ZM20.2,16.9c0,.2-.1.3-.3.3h-1c0,0-.2,0-.2-.1l-2.8-3.8v3.7c0,.2-.1.3-.3.3h-1c-.2,0-.3-.1-.3-.3v-6.2c0-.2.1-.3.3-.3h1c0,0,.2,0,.2.1l2.8,3.8v-3.7c0-.2.1-.3.3-.3h1c.2,0,.3.1.3.3v6.2ZM25.6,11.7c0,.2-.1.3-.3.3h-2.7v1h2.7c.2,0,.3.1.3.3v1c0,.2-.1.3-.3.3h-2.7v1h2.7c.2,0,.3.1.3.3v1c0,.2-.1.3-.3.3h-3.9c-.2,0-.3-.1-.3-.3v-6.2c0-.2.1-.3.3-.3h3.9c.1,0,.3.1.3.3v1Z"/>
</svg>